<?xml version="1.0" standalone="no"?>
<!DOCTYPE svg PUBLIC "-//W3C//DTD SVG 20010904//EN"
 "http://www.w3.org/TR/2001/REC-SVG-20010904/DTD/svg10.dtd">
<svg version="1.0" xmlns="http://www.w3.org/2000/svg"
 width="1125.000000pt" height="1125.000000pt" viewBox="0 0 1125.000000 1125.000000"
 preserveAspectRatio="xMidYMid meet">
<metadata>
Created by potrace 1.14, written by Peter Selinger 2001-2017
</metadata>
<g transform="translate(0.000000,1125.000000) scale(0.100000,-0.100000)"
fill="#000000" stroke="none">
<path d="M5455 11004 c-208 -37 -496 -130 -810 -261 -822 -343 -1959 -985
-2740 -1548 -464 -334 -747 -586 -928 -826 -29 -39 -84 -159 -111 -244 -44
-138 -99 -384 -121 -540 -2 -11 -6 -42 -10 -70 -4 -27 -9 -58 -11 -68 -2 -10
-6 -45 -9 -78 -4 -33 -8 -68 -10 -77 -1 -9 -6 -51 -10 -92 -4 -41 -9 -82 -10
-90 -2 -9 -6 -63 -10 -120 -4 -57 -8 -111 -10 -120 -2 -8 -6 -73 -10 -145 -5
-71 -9 -148 -11 -170 -26 -389 -25 -1460 1 -1865 2 -30 6 -104 10 -165 3 -60
8 -123 10 -140 2 -16 7 -70 10 -120 3 -49 7 -101 9 -115 3 -14 7 -54 10 -90 9
-91 25 -224 36 -295 5 -33 12 -78 15 -100 26 -174 80 -416 121 -541 25 -75 91
-220 114 -247 5 -6 31 -39 58 -72 54 -69 222 -239 301 -305 30 -25 61 -52 70
-61 50 -49 434 -343 546 -419 28 -19 52 -36 55 -40 3 -3 29 -21 58 -39 30 -19
59 -39 65 -45 17 -16 357 -237 517 -336 74 -46 151 -93 170 -106 46 -29 254
-151 305 -180 22 -12 85 -47 140 -79 55 -31 179 -100 275 -151 96 -52 182 -99
190 -103 100 -55 665 -331 677 -331 3 0 33 -13 68 -29 276 -128 700 -279 890
-317 11 -2 45 -9 75 -16 88 -19 299 -14 410 10 543 117 1470 543 2450 1125
532 316 1105 704 1415 958 337 277 545 500 613 659 78 182 161 554 197 880 3
30 8 66 10 80 3 23 6 50 20 187 2 23 7 77 11 120 3 43 8 96 9 118 2 22 7 92
11 155 3 63 8 135 10 160 12 178 19 496 19 925 0 510 -9 843 -30 1098 -3 38
-8 103 -10 145 -5 77 -12 155 -20 222 -2 19 -7 64 -10 100 -3 36 -7 76 -10 90
-2 14 -6 48 -9 75 -6 60 -23 180 -36 255 -5 30 -12 71 -15 90 -52 326 -134
564 -245 711 -317 421 -1353 1158 -2512 1787 -29 16 -84 46 -122 67 -210 114
-649 327 -867 420 -74 32 -148 64 -166 71 -40 18 -265 105 -278 109 -5 1 -17
5 -25 8 -42 18 -280 89 -343 103 -195 42 -334 51 -462 28z m300 -308 c135 -23
465 -129 612 -196 24 -11 45 -20 49 -20 7 0 124 -50 212 -91 34 -16 64 -29 66
-29 7 0 266 -124 381 -182 174 -88 450 -231 460 -238 6 -4 42 -24 80 -45 69
-37 108 -59 203 -111 114 -64 518 -303 607 -359 28 -17 88 -56 135 -85 174
-109 350 -226 503 -334 87 -61 169 -118 181 -126 61 -41 266 -200 376 -293
226 -189 360 -334 419 -454 36 -74 78 -204 95 -293 2 -14 9 -45 14 -70 11 -46
46 -258 57 -340 3 -25 8 -61 10 -80 5 -36 15 -130 20 -190 2 -19 6 -71 10
-115 11 -121 13 -140 20 -270 4 -66 9 -140 10 -165 4 -60 15 -327 20 -470 10
-286 5 -953 -10 -1320 -10 -242 -30 -534 -50 -730 -2 -14 -6 -56 -9 -95 -4
-38 -9 -81 -11 -95 -3 -14 -7 -52 -11 -85 -3 -33 -8 -62 -9 -65 -2 -3 -6 -30
-10 -60 -12 -101 -64 -345 -91 -430 -65 -209 -177 -350 -459 -585 -33 -28 -62
-52 -65 -55 -3 -3 -25 -21 -50 -40 -25 -19 -47 -37 -50 -40 -3 -3 -23 -19 -45
-35 -22 -17 -42 -32 -45 -35 -38 -41 -581 -411 -857 -584 -191 -119 -571 -346
-579 -346 -3 0 -23 -11 -45 -26 -45 -28 -75 -45 -169 -96 -36 -19 -108 -59
-160 -88 -378 -210 -925 -472 -1245 -597 -186 -73 -397 -143 -476 -158 -12 -2
-28 -6 -37 -9 -67 -20 -236 -27 -322 -12 -25 4 -79 16 -120 27 -41 11 -91 24
-110 29 -42 11 -219 74 -345 123 -177 68 -534 231 -795 363 -322 162 -377 192
-755 404 -474 266 -1076 653 -1475 949 -41 30 -77 58 -80 61 -3 3 -47 38 -98
78 -186 146 -348 298 -436 412 -98 125 -156 300 -215 645 -11 59 -12 73 -26
185 -3 30 -8 66 -10 80 -10 69 -31 280 -40 415 -3 44 -8 107 -11 140 -5 65 -9
145 -21 410 -16 352 -9 1452 12 1760 2 33 7 101 10 150 3 50 8 117 10 150 3
33 7 89 10 125 5 66 10 117 21 213 3 28 7 66 9 84 6 53 39 271 51 333 2 14 7
41 10 60 11 68 66 272 91 332 27 68 73 143 124 203 373 439 1586 1246 2774
1845 378 191 571 280 805 373 177 69 202 79 210 82 3 1 57 18 120 38 135 42
224 65 283 73 23 4 43 7 45 9 5 5 176 -3 217 -9z"/>
<path d="M5588 10585 c-2 -1 -28 -5 -58 -9 -168 -18 -441 -108 -823 -271 -209
-88 -721 -342 -977 -483 -338 -186 -779 -443 -966 -564 -311 -201 -463 -302
-563 -374 -152 -110 -327 -238 -331 -243 -3 -4 -36 -31 -75 -61 -172 -135
-356 -313 -431 -416 -49 -68 -83 -139 -108 -226 -9 -32 -17 -61 -18 -65 0 -5
-6 -28 -14 -53 -22 -76 -54 -258 -79 -455 -25 -194 -30 -240 -40 -380 -3 -44
-8 -96 -10 -115 -4 -33 -15 -213 -20 -310 -26 -525 -26 -1503 0 -1875 3 -38 7
-110 10 -160 10 -159 26 -352 40 -480 19 -165 33 -272 50 -370 3 -16 8 -46 11
-65 23 -144 73 -326 114 -417 53 -117 211 -291 410 -453 30 -25 57 -47 60 -51
10 -12 322 -248 390 -295 250 -172 327 -224 470 -316 287 -184 722 -444 990
-590 36 -20 85 -47 110 -60 337 -185 792 -407 1090 -530 122 -51 340 -134 375
-142 6 -2 17 -6 25 -9 38 -16 252 -67 311 -75 97 -12 163 -7 296 22 180 41
537 171 806 295 37 17 97 45 135 62 163 75 458 224 717 363 93 50 385 214 430
242 22 13 47 27 55 31 8 4 42 23 75 43 33 20 67 39 75 43 8 4 27 15 42 25 15
9 101 62 190 117 444 273 978 648 1197 840 252 222 356 344 410 484 48 125 99
362 135 636 17 124 19 142 51 505 3 30 7 102 11 160 3 58 7 132 9 165 26 421
26 1394 0 1845 -11 194 -17 289 -20 320 -2 19 -6 73 -10 120 -3 47 -8 103 -11
125 -2 22 -9 81 -14 130 -12 106 -18 157 -26 205 -3 19 -7 51 -10 70 -15 118
-78 398 -103 463 -28 71 -32 82 -33 87 0 3 -22 37 -49 75 -109 158 -370 392
-707 635 -75 55 -142 104 -149 110 -70 59 -713 469 -963 614 -74 43 -147 87
-162 97 -15 11 -29 19 -32 19 -3 0 -43 22 -88 49 -240 140 -806 433 -1093 564
-337 155 -732 300 -905 332 -66 13 -196 25 -202 20z"/>
</g>
</svg>
